<?xml version="1.0" standalone="no"?>
<!DOCTYPE svg PUBLIC "-//W3C//DTD SVG 20010904//EN"
 "http://www.w3.org/TR/2001/REC-SVG-20010904/DTD/svg10.dtd">
<svg version="1.0" xmlns="http://www.w3.org/2000/svg"
 width="1024.000000pt" height="1024.000000pt" viewBox="0 0 1024.000000 1024.000000"
 preserveAspectRatio="xMidYMid meet">
<metadata>
Created by potrace 1.11, written by Peter Selinger 2001-2013
</metadata>
<g transform="translate(0.000000,1024.000000) scale(0.100000,-0.100000)"
fill="#000000" stroke="none">
<path d="M3845 9436 c-169 -51 -395 -133 -515 -187 -25 -12 -61 -28 -80 -36
-159 -69 -503 -263 -660 -372 -239 -165 -440 -331 -641 -531 -78 -77 -123
-125 -245 -262 -254 -285 -533 -727 -704 -1118 -126 -287 -248 -674 -295 -940
-4 -19 -11 -57 -15 -85 -5 -27 -11 -61 -14 -75 -4 -24 -10 -64 -21 -160 -3
-25 -7 -54 -9 -65 -19 -102 -28 -626 -13 -820 20 -266 95 -704 146 -855 5 -14
19 -59 31 -100 238 -798 707 -1534 1325 -2075 44 -38 82 -72 85 -75 19 -21
199 -159 320 -247 253 -183 646 -392 965 -513 152 -58 370 -129 444 -145 9 -2
61 -15 116 -29 106 -26 113 -28 245 -51 47 -9 92 -17 100 -20 8 -2 42 -7 75
-10 33 -3 74 -8 90 -10 212 -35 859 -41 1010 -10 11 2 47 7 80 10 179 17 512
85 719 146 310 92 659 237 907 377 360 203 661 426 956 707 l64 60 -620 619
-620 620 67 71 c205 216 399 516 516 800 21 50 41 99 46 110 5 11 24 68 42
126 l33 105 835 -223 c459 -122 840 -223 846 -223 11 0 19 22 30 75 4 22 12
56 18 83 12 47 37 171 42 202 3 19 7 42 9 50 5 16 31 206 39 280 27 256 28
739 1 951 -1 14 -8 68 -15 120 -6 52 -13 105 -16 119 -2 14 -7 41 -10 60 -3
19 -9 53 -14 75 -5 22 -12 56 -15 75 -35 206 -177 654 -275 868 -214 469 -423
801 -728 1155 -109 126 -300 320 -412 417 -41 36 -83 73 -95 84 -11 10 -67 55
-125 100 -475 369 -938 605 -1540 784 l-65 20 -7 -27 c-4 -14 -106 -392 -226
-839 -121 -447 -221 -815 -224 -818 -3 -3 -37 2 -74 11 -114 27 -274 54 -369
62 -168 15 -520 8 -636 -12 -13 -2 -55 -9 -93 -15 -38 -6 -105 -19 -150 -30
-44 -10 -83 -15 -86 -10 -3 4 -106 384 -229 844 -124 460 -227 836 -230 835
-3 0 -55 -15 -116 -33z"/>
</g>
</svg>
